<svg xmlns="http://www.w3.org/2000/svg" width="1400" height="900" viewBox="0 0 1400 900" role="img" aria-labelledby="title desc">
  <title id="title">Licença WA.Auto — W1/W2 Soluções Capitais</title>
  <desc id="desc">Cartão oficial de licença do WA.Auto, criado por Davi Alves Figueredo.</desc>
  <defs>
    <linearGradient id="bg" x1="0" y1="0" x2="1" y2="1">
      <stop offset="0" stop-color="#fbfefc"/>
      <stop offset="1" stop-color="#e5f1e8"/>
    </linearGradient>
    <linearGradient id="shield" x1="0" y1="0" x2="1" y2="1">
      <stop offset="0" stop-color="#0f6a4f"/>
      <stop offset="1" stop-color="#063c32"/>
    </linearGradient>
    <filter id="shadow" x="-20%" y="-20%" width="140%" height="140%">
      <feDropShadow dx="0" dy="18" stdDeviation="24" flood-color="#27483a" flood-opacity=".18"/>
    </filter>
  </defs>
  <rect width="1400" height="900" fill="#eef5f0"/>
  <rect x="42" y="70" width="1316" height="760" rx="30" fill="url(#bg)" stroke="#ffffff" stroke-width="2" filter="url(#shadow)"/>
  <g transform="translate(96 112)">
    <rect width="72" height="72" rx="16" fill="url(#shield)"/>
    <text x="36" y="49" font-family="Arial, sans-serif" font-size="42" font-weight="800" text-anchor="middle" fill="#fff">W</text>
    <text x="96" y="49" font-family="Arial, sans-serif" font-size="38" font-weight="800" fill="#0b2018">WA.Auto</text>
  </g>
  <line x1="98" y1="220" x2="1302" y2="220" stroke="#cadbd1" stroke-width="2"/>
  <g transform="translate(95 285)">
    <rect width="330" height="330" rx="42" fill="url(#shield)"/>
    <path d="M165 70 L245 102 V166 C245 225 212 274 165 298 C118 274 85 225 85 166 V102 Z" fill="none" stroke="#d8f0d6" stroke-width="18"/>
    <path d="M125 175 L154 204 L210 145" fill="none" stroke="#d8f0d6" stroke-width="18" stroke-linecap="round" stroke-linejoin="round"/>
  </g>
  <g transform="translate(485 310)">
    <rect x="0" y="0" width="238" height="66" rx="33" fill="#dff2df"/>
    <circle cx="42" cy="33" r="19" fill="#0d5e47"/>
    <path d="M33 33 L40 40 L52 26" fill="none" stroke="#fff" stroke-width="5" stroke-linecap="round" stroke-linejoin="round"/>
    <text x="75" y="43" font-family="Arial, sans-serif" font-size="28" font-weight="700" fill="#0b2018">Licença</text>
    <text x="0" y="165" font-family="Arial, sans-serif" font-size="52" font-weight="800" fill="#0a241b">W1/W2 Soluções Capitais</text>
    <text x="0" y="228" font-family="Arial, sans-serif" font-size="34" fill="#455850">Criado por Davi Alves Figueredo</text>
    <line x1="0" y1="300" x2="610" y2="300" stroke="#cfded5" stroke-width="2"/>
    <text x="0" y="370" font-family="Arial, sans-serif" font-size="30" font-weight="700" fill="#31483f">© 2026 · Todos os direitos reservados.</text>
    <text x="0" y="420" font-family="Arial, sans-serif" font-size="22" fill="#5f7068">Licença Proprietária WA.Auto</text>
  </g>
</svg>